<svg width="16" height="16" viewBox="0 0 16 16" fill="none" xmlns="http://www.w3.org/2000/svg">
<path d="M11.3333 7.86969C11.3333 7.63922 11.3333 7.52402 11.368 7.42135C11.4688 7.12295 11.7345 7.00722 12.0007 6.88595C12.3 6.74962 12.4496 6.68149 12.5979 6.66949C12.7662 6.65587 12.9348 6.69215 13.0787 6.77289C13.2694 6.87989 13.4024 7.08329 13.5386 7.24869C14.1675 8.01255 14.4819 8.39455 14.597 8.81575C14.6899 9.15562 14.6899 9.51109 14.597 9.85095C14.4292 10.4653 13.899 10.9803 13.5065 11.457C13.3058 11.7008 13.2054 11.8227 13.0787 11.8938C12.9348 11.9746 12.7662 12.0108 12.5979 11.9972C12.4496 11.9852 12.3 11.9171 12.0007 11.7808C11.7345 11.6595 11.4688 11.5438 11.368 11.2454C11.3333 11.1427 11.3333 11.0275 11.3333 10.797V7.86969Z" stroke="#495D69" stroke-width="1.5"/>
<path d="M4.66667 7.86973C4.66667 7.5796 4.65852 7.3188 4.42394 7.1148C4.33862 7.0406 4.2255 6.98907 3.99928 6.886C3.70001 6.74973 3.55038 6.6816 3.40211 6.6696C2.95728 6.6336 2.71795 6.9372 2.46142 7.2488C1.8325 8.01267 1.51804 8.3946 1.40298 8.8158C1.31012 9.15573 1.31012 9.5112 1.40298 9.85107C1.5708 10.4654 2.10102 10.9803 2.49348 11.4571C2.74086 11.7575 2.97718 12.0317 3.40211 11.9973C3.55038 11.9853 3.70001 11.9171 3.99928 11.7809C4.2255 11.6778 4.33862 11.6263 4.42394 11.5521C4.65852 11.3481 4.66667 11.0873 4.66667 10.7971V7.86973Z" stroke="#495D69" stroke-width="1.5"/>
<path d="M13.3333 6.99998V5.99998C13.3333 3.42265 10.9455 1.33331 8 1.33331C5.05448 1.33331 2.66667 3.42265 2.66667 5.99998V6.99998" stroke="#495D69" stroke-width="1.5" stroke-linecap="round" stroke-linejoin="round"/>
<path d="M13.3333 11.6667C13.3333 14.6667 10.6667 14.6667 8 14.6667" stroke="#495D69" stroke-width="1.5" stroke-linecap="round" stroke-linejoin="round"/>
</svg>
