<svg width="16" height="16" viewBox="0 0 16 16" fill="none" xmlns="http://www.w3.org/2000/svg">
<path d="M4.66675 14V12" stroke="#141C24" stroke-width="1.5" stroke-linecap="round" stroke-linejoin="round"/>
<path d="M11.3333 14V10" stroke="#141C24" stroke-width="1.5" stroke-linecap="round" stroke-linejoin="round"/>
<path d="M11.3333 4V2" stroke="#141C24" stroke-width="1.5" stroke-linecap="round" stroke-linejoin="round"/>
<path d="M4.66675 6V2" stroke="#141C24" stroke-width="1.5" stroke-linecap="round" stroke-linejoin="round"/>
<path d="M4.66675 12C4.04549 12 3.73487 12 3.48983 11.8985C3.16313 11.7632 2.90357 11.5036 2.76824 11.1769C2.66675 10.9319 2.66675 10.6213 2.66675 10C2.66675 9.37873 2.66675 9.06813 2.76824 8.82307C2.90357 8.4964 3.16313 8.2368 3.48983 8.10147C3.73487 8 4.04549 8 4.66675 8C5.288 8 5.59863 8 5.84366 8.10147C6.17036 8.2368 6.42993 8.4964 6.56525 8.82307C6.66675 9.06813 6.66675 9.37873 6.66675 10C6.66675 10.6213 6.66675 10.9319 6.56525 11.1769C6.42993 11.5036 6.17036 11.7632 5.84366 11.8985C5.59863 12 5.288 12 4.66675 12Z" stroke="#141C24" stroke-width="1.5"/>
<path d="M11.3333 8C10.712 8 10.4014 8 10.1563 7.89853C9.82965 7.7632 9.57005 7.5036 9.43472 7.17693C9.33325 6.93187 9.33325 6.62125 9.33325 6C9.33325 5.37875 9.33325 5.06812 9.43472 4.82309C9.57005 4.49639 9.82965 4.23682 10.1563 4.10149C10.4014 4 10.712 4 11.3333 4C11.9545 4 12.2651 4 12.5102 4.10149C12.8369 4.23682 13.0965 4.49639 13.2318 4.82309C13.3333 5.06812 13.3333 5.37875 13.3333 6C13.3333 6.62125 13.3333 6.93187 13.2318 7.17693C13.0965 7.5036 12.8369 7.7632 12.5102 7.89853C12.2651 8 11.9545 8 11.3333 8Z" stroke="#141C24" stroke-width="1.5"/>
</svg>
