<svg width="16" height="16" viewBox="0 0 16 16" fill="none" xmlns="http://www.w3.org/2000/svg">
<path d="M14.2117 4.76089L13.8826 4.18982C13.6337 3.75793 13.5093 3.54199 13.2976 3.45588C13.0859 3.36977 12.8464 3.43772 12.3675 3.57361L11.5541 3.80275C11.2483 3.87325 10.9275 3.83325 10.6484 3.68982L10.4238 3.56024C10.1844 3.40691 10.0003 3.18085 9.89833 2.91512L9.67573 2.2502C9.52933 1.81019 9.45613 1.59018 9.28186 1.46434C9.10766 1.3385 8.8762 1.3385 8.41326 1.3385H7.67006C7.2072 1.3385 6.97573 1.3385 6.80146 1.46434C6.62723 1.59018 6.55404 1.81019 6.40766 2.2502L6.18502 2.91512C6.0831 3.18085 5.89896 3.40691 5.65958 3.56024L5.43499 3.68982C5.15582 3.83325 4.83506 3.87325 4.52932 3.80275L3.71583 3.57361C3.23694 3.43772 2.9975 3.36977 2.78578 3.45588C2.57406 3.54199 2.44963 3.75793 2.20076 4.18982L1.87171 4.76089C1.63844 5.16572 1.5218 5.36814 1.54444 5.58362C1.56707 5.7991 1.72322 5.97275 2.0355 6.32004L2.72286 7.08849C2.89086 7.30116 3.01014 7.67183 3.01014 8.00509C3.01014 8.33849 2.8909 8.70903 2.72288 8.92176L2.0355 9.69023C1.72322 10.0376 1.56708 10.2112 1.54444 10.4267C1.5218 10.6422 1.63844 10.8446 1.87171 11.2494L2.20076 11.8204C2.44962 12.2523 2.57406 12.4683 2.78578 12.5544C2.9975 12.6405 3.23694 12.5726 3.71584 12.4366L4.52929 12.2075C4.83508 12.137 5.15591 12.177 5.43511 12.3205L5.65966 12.4501C5.899 12.6034 6.08309 12.8294 6.185 13.0952L6.40766 13.7602C6.55404 14.2002 6.62723 14.4202 6.80146 14.546C6.97573 14.6718 7.2072 14.6718 7.67006 14.6718H8.41326C8.8762 14.6718 9.10766 14.6718 9.28186 14.546C9.45613 14.4202 9.52933 14.2002 9.67573 13.7602L9.8984 13.0952C10.0003 12.8294 10.1843 12.6034 10.4237 12.4501L10.6483 12.3205C10.9275 12.177 11.2483 12.137 11.5541 12.2075L12.3675 12.4366C12.8464 12.5726 13.0859 12.6405 13.2976 12.5544C13.5093 12.4683 13.6337 12.2523 13.8826 11.8204L14.2117 11.2494C14.4449 10.8446 14.5615 10.6422 14.5389 10.4267C14.5163 10.2112 14.3601 10.0376 14.0479 9.69023L13.3605 8.92176C13.1925 8.70903 13.0732 8.33849 13.0732 8.00509C13.0732 7.67183 13.1925 7.30116 13.3605 7.08849L14.0479 6.32004C14.3601 5.97275 14.5163 5.7991 14.5389 5.58362C14.5615 5.36814 14.4449 5.16572 14.2117 4.76089Z" stroke="#495D69" stroke-width="1.5" stroke-linecap="round"/>
</svg>
