<svg width="16" height="16" viewBox="0 0 16 16" fill="none" xmlns="http://www.w3.org/2000/svg">
<path d="M1.97791 6.99707V10.3316C1.97791 12.2179 1.97791 13.161 2.56369 13.747C3.14948 14.3331 4.09229 14.3331 5.97791 14.3331H9.97791C11.8635 14.3331 12.8063 14.3331 13.3921 13.747C13.9779 13.161 13.9779 12.2179 13.9779 10.3316V6.99707" stroke="#C1CF16" stroke-width="1.5" stroke-linecap="round"/>
<path d="M4.64453 11.9955H7.3112" stroke="#C1CF16" stroke-width="1.5" stroke-linecap="round"/>
<path d="M6.73591 5.61198C6.54792 6.29091 5.86423 7.46205 4.56522 7.63179C3.41826 7.78165 2.54835 7.28105 2.32615 7.07172C2.08116 6.90199 1.52281 6.35881 1.38608 6.01934C1.24934 5.67987 1.40887 4.94437 1.52281 4.64451L1.97833 3.32558C2.08953 2.9943 2.34984 2.21077 2.61671 1.94575C2.88359 1.68073 3.42391 1.66919 3.64631 1.66919H8.31664C9.51877 1.68618 12.1473 1.65848 12.6669 1.6692C13.1865 1.67992 13.4988 2.11548 13.5899 2.30219C14.3652 4.18007 14.6667 5.25555 14.6667 5.71382C14.5655 6.2027 14.1467 7.12452 12.6669 7.52999C11.1289 7.95139 10.257 7.13172 9.98344 6.81712M6.10352 6.81712C6.32002 7.08299 6.99917 7.61825 7.98364 7.63179C8.96817 7.64539 9.81824 6.95852 10.1202 6.61341C10.2056 6.51157 10.3902 6.20945 10.5817 5.61198" stroke="#C1CF16" stroke-width="1.5" stroke-linecap="round" stroke-linejoin="round"/>
</svg>
