<svg width="16" height="16" viewBox="0 0 16 16" fill="none" xmlns="http://www.w3.org/2000/svg">
<path d="M4.38505 10.3211C3.44187 10.8827 0.968909 12.0294 2.47511 13.4644C3.21088 14.1653 4.03033 14.6667 5.06058 14.6667H10.9394C11.9697 14.6667 12.7891 14.1653 13.5249 13.4644C15.0311 12.0294 12.5581 10.8827 11.6149 10.3211C9.4032 9.00406 6.5968 9.00406 4.38505 10.3211Z" stroke="#495D69" stroke-width="1.5" stroke-linecap="round" stroke-linejoin="round"/>
<path d="M11 4.33331C11 5.99017 9.65687 7.33331 8 7.33331C6.34315 7.33331 5 5.99017 5 4.33331C5 2.67646 6.34315 1.33331 8 1.33331C9.65687 1.33331 11 2.67646 11 4.33331Z" stroke="#495D69" stroke-width="1.5"/>
</svg>
